<svg aria-hidden="true" style="position: absolute; width: 0; height: 0; overflow: hidden;" version="1.1" xmlns="http://www.w3.org/2000/svg" xmlns:xlink="http://www.w3.org/1999/xlink">
<defs>

<symbol id="menu-outline" viewBox="0 0 512 512" fill="none">
<path d="M80 160H432M80 256H432M80 352H432" stroke-width="32" stroke-miterlimit="10" stroke-linecap="round"/>
</symbol>

<symbol id="close-outline" viewBox="0 0 512 512" fill="none">
<path d="M368.75 368L144.75 144M368.75 144L144.75 368" stroke-width="32" stroke-linecap="round" stroke-linejoin="round"/>
</symbol>

<symbol id="flame-outline" viewBox="0 0 512 512" fill="none">
<path d="M112 320C112 227 236 155 208 48C274 48 400 144 400 320C400 358.191 384.829 394.818 357.823 421.823C330.818 448.829 294.191 464 256 464C217.809 464 181.182 448.829 154.177 421.823C127.171 394.818 112 358.191 112 320Z" stroke-width="32" stroke-linecap="round" stroke-linejoin="round"/>
<path d="M320 368C320 425.71 288 448 256 448C224 448 192 425.71 192 368C192 310.29 232 282 224 240C266 240 320 310.29 320 368Z" stroke-width="32" stroke-linecap="round" stroke-linejoin="round"/>
</symbol>

<symbol id="restaurant-outline" viewBox="0 0 512 512" fill="none">
<path d="M58.3652 47.74L426.795 416.17C433.786 423.161 437.713 432.643 437.713 442.53C437.713 452.417 433.786 461.899 426.795 468.89C419.803 475.878 410.321 479.804 400.435 479.804C390.549 479.804 381.068 475.878 374.075 468.89L284.075 377.34C278.185 371.359 274.881 363.304 274.875 354.91V349.38C274.876 345.142 274.035 340.945 272.401 337.035C270.766 333.124 268.372 329.577 265.355 326.6L253.735 315.87C249.791 312.23 244.994 309.641 239.786 308.341C234.579 307.041 229.128 307.071 223.935 308.43C215.747 310.567 207.142 310.526 198.975 308.31C190.807 306.095 183.361 301.782 177.375 295.8L91.9452 210.36C41.2652 159.68 22.6152 83.15 58.3652 47.74Z" stroke-width="32" stroke-linejoin="round"/>
<path d="M400.875 32L323.625 109.25C317.68 115.193 312.965 122.249 309.748 130.015C306.531 137.781 304.875 146.104 304.875 154.51V169.37C304.875 171.472 304.461 173.554 303.656 175.497C302.852 177.439 301.672 179.204 300.185 180.69L288.875 192M320.875 224L332.185 212.69C333.671 211.203 335.436 210.023 337.378 209.218C339.32 208.414 341.402 208 343.505 208H358.365C366.771 208 375.094 206.344 382.86 203.127C390.626 199.91 397.682 195.194 403.625 189.25L480.875 112M440.875 72L360.875 152M200.875 368L101.155 468.28C93.6536 475.779 83.4813 479.991 72.8748 479.991C62.2682 479.991 52.0959 475.779 44.5948 468.28C37.0959 460.779 32.8833 450.607 32.8833 440C32.8833 429.393 37.0959 419.221 44.5948 411.72L128.875 328" stroke-width="32" stroke-linecap="round" stroke-linejoin="round"/>
</symbol>

<symbol id="star-outline" viewBox="0 0 512 512" fill="none">
<path d="M480.75 208H308.75L256.75 48L204.75 208H32.75L172.75 304L118.75 464L256.75 364L394.75 464L340.75 304L480.75 208Z" stroke-width="32" stroke-linejoin="round"/>
</symbol>

<symbol id="checkmark-outline" viewBox="0 0 512 512" fill="none">
<path d="M416.5 128L192.5 384L96.5 288" stroke-width="32" stroke-linecap="round" stroke-linejoin="round"/>
</symbol>

<symbol id="hand-right-outline" viewBox="0 0 512 512" fill="none">
<path d="M432.625 320V144C432.625 135.513 429.254 127.374 423.252 121.373C417.251 115.371 409.112 112 400.625 112C392.138 112 383.999 115.371 377.998 121.373C371.996 127.374 368.625 135.513 368.625 144V256V80C368.625 71.5131 365.254 63.3737 359.252 57.3726C353.251 51.3714 345.112 48 336.625 48C328.138 48 319.999 51.3714 313.998 57.3726C307.996 63.3737 304.625 71.5131 304.625 80V240V48C304.625 39.5131 301.254 31.3737 295.252 25.3726C289.251 19.3714 281.112 16 272.625 16C264.138 16 255.999 19.3714 249.998 25.3726C243.996 31.3737 240.625 39.5131 240.625 48V240M240.625 241V96C240.625 87.5131 237.254 79.3737 231.252 73.3726C225.251 67.3714 217.112 64 208.625 64C200.138 64 191.999 67.3714 185.998 73.3726C179.996 79.3737 176.625 87.5131 176.625 96V320" stroke-width="32" stroke-linecap="round" stroke-linejoin="round"/>
<path d="M432.625 320C432.625 437.4 368.625 496 280.625 496C192.625 496 156.915 456.4 136.625 408L83.955 264C77.295 245.95 80.315 229.21 95.825 220.4C111.345 211.58 131.735 216.12 140.135 232.08L176.625 320" stroke-width="32" stroke-linecap="round" stroke-linejoin="round"/>
</symbol>

<symbol id="nutrition-outline" viewBox="0 0 512 512" fill="none">
<path d="M352.5 128C320.24 125.11 288.5 144 256.5 144C224.5 144 192.75 125 160.5 128C96.5 134 64.5 192 64.5 288C64.5 368 128.5 480 175.7 480C222.9 480 227.64 456 256.5 456C285.36 456 290.09 480 337.3 480C384.51 480 448.5 368 448.5 288C448.5 192 419.5 134 352.5 128Z" stroke-width="32" stroke-miterlimit="10"/>
<path d="M324.42 83.1399C303.42 104.14 278.76 110.14 265.6 111.93C264.397 112.103 263.17 112 262.012 111.629C260.855 111.257 259.797 110.626 258.92 109.785C258.043 108.943 257.369 107.913 256.95 106.772C256.53 105.631 256.376 104.409 256.5 103.2C258.873 80.7055 268.986 59.7338 285.11 43.8699C307.11 21.8699 331.11 16.9699 343.83 16.0199C345.017 15.9116 346.214 16.07 347.332 16.4837C348.451 16.8974 349.462 17.5559 350.293 18.4109C351.125 19.266 351.754 20.296 352.136 21.4257C352.517 22.5553 352.642 23.756 352.5 24.9399C349.989 46.9567 340.091 67.4725 324.42 83.1399Z" fill="#9ABC5E"/>
<path d="M216.5 352C229.755 352 240.5 330.51 240.5 304C240.5 277.49 229.755 256 216.5 256C203.245 256 192.5 277.49 192.5 304C192.5 330.51 203.245 352 216.5 352Z" fill="#9ABC5E"/>
<path d="M296.5 352C309.755 352 320.5 330.51 320.5 304C320.5 277.49 309.755 256 296.5 256C283.245 256 272.5 277.49 272.5 304C272.5 330.51 283.245 352 296.5 352Z" fill="#9ABC5E"/>
</symbol>

<symbol id="leaf-outline" viewBox="0 0 512 512" fill="none">
<path d="M173 253C259 334 348 382 465 400M321.89 171.42C233 114 141 155.22 56.0002 65.2201C36.2002 44.2201 47.7002 300.72 154.1 397.92C231.89 468.92 352 461 392.5 392C433 323 410.78 228.83 321.89 171.42Z" stroke-width="32" stroke-linecap="round" stroke-linejoin="round"/>
</symbol>

<symbol id="pause-outline" viewBox="0 0 512 512" fill="none">
<path d="M176 96H192V416H176V96ZM320 96H336V416H320V96Z" stroke-width="32" stroke-linecap="round" stroke-linejoin="round"/>
</symbol>

<symbol id="logo-instagram" viewBox="0 0 512 512">
<path d="M349.342 69.33C374.075 69.4039 397.773 79.2616 415.262 96.7502C432.751 114.239 442.608 137.937 442.682 162.67V349.33C442.608 374.063 432.751 397.761 415.262 415.25C397.773 432.738 374.075 442.596 349.342 442.67H162.682C137.95 442.596 114.251 432.738 96.7625 415.25C79.2738 397.761 69.4161 374.063 69.3422 349.33V162.67C69.4161 137.937 79.2738 114.239 96.7625 96.7502C114.251 79.2616 137.95 69.4039 162.682 69.33H349.342ZM349.342 32H162.682C90.8122 32 32.0122 90.8 32.0122 162.67V349.33C32.0122 421.2 90.8122 480 162.682 480H349.342C421.212 480 480.012 421.2 480.012 349.33V162.67C480.012 90.8 421.212 32 349.342 32Z" />
<path d="M377.342 162.67C371.804 162.67 366.391 161.028 361.786 157.951C357.182 154.875 353.593 150.502 351.474 145.385C349.354 140.269 348.8 134.639 349.88 129.208C350.961 123.776 353.627 118.787 357.543 114.871C361.459 110.955 366.448 108.288 371.88 107.208C377.311 106.128 382.941 106.682 388.057 108.801C393.174 110.921 397.547 114.51 400.623 119.114C403.7 123.719 405.342 129.132 405.342 134.67C405.35 138.349 404.631 141.994 403.227 145.395C401.823 148.795 399.761 151.885 397.159 154.487C394.557 157.088 391.467 159.15 388.067 160.555C384.666 161.959 381.021 162.678 377.342 162.67ZM256.012 181.33C270.781 181.33 285.217 185.709 297.497 193.914C309.776 202.119 319.347 213.781 324.998 227.425C330.65 241.069 332.129 256.083 329.247 270.567C326.366 285.052 319.255 298.357 308.812 308.8C298.369 319.242 285.064 326.354 270.58 329.235C256.095 332.116 241.081 330.638 227.437 324.986C213.793 319.335 202.131 309.764 193.926 297.484C185.722 285.205 181.342 270.768 181.342 256C181.363 236.203 189.237 217.223 203.236 203.224C217.235 189.225 236.215 181.351 256.012 181.33ZM256.012 144C233.861 144 212.207 150.569 193.788 162.875C175.37 175.182 161.015 192.674 152.538 213.14C144.061 233.605 141.843 256.124 146.164 277.85C150.486 299.576 161.153 319.533 176.816 335.196C192.48 350.859 212.436 361.526 234.162 365.848C255.888 370.17 278.407 367.952 298.873 359.475C319.338 350.998 336.83 336.642 349.137 318.224C361.444 299.806 368.012 278.152 368.012 256C368.012 226.296 356.212 197.808 335.208 176.804C314.204 155.8 285.716 144 256.012 144Z" />
</symbol>

<symbol id="logo-facebook" viewBox="0 0 512 512">
<path fill-rule="evenodd" clip-rule="evenodd" d="M480.012 257.35C480.012 133.65 379.712 33.35 256.012 33.35C132.312 33.35 32.0122 133.65 32.0122 257.35C32.0122 369.15 113.912 461.82 221.012 478.64V322.12H164.122V257.35H221.012V208C221.012 151.87 254.462 120.84 305.622 120.84C330.132 120.84 355.772 125.22 355.772 125.22V180.35H327.512C299.702 180.35 291.002 197.61 291.002 215.35V257.35H353.122L343.202 322.12H291.012V478.66C398.112 461.85 480.012 369.18 480.012 257.35Z" />
</symbol>

<symbol id="logo-x" viewBox="0 0 512 512">
<path d="M297.716 221.698L460.908 32.0005H422.237L280.537 196.712L167.362 32.0005H36.8281L207.971 281.074L36.8281 480H75.5016L225.14 306.059L344.661 480H475.195L297.706 221.698H297.716ZM244.747 283.268L227.407 258.466L89.4362 61.1133H148.836L260.18 220.383L277.521 245.185L422.255 452.212H362.855L244.747 283.278V283.268Z" />
</symbol>

<symbol id="caret-up-outline" viewBox="0 0 512 512">
<path d="M414 321.94L274.22 158.82C271.967 156.192 269.172 154.083 266.027 152.637C262.882 151.19 259.462 150.442 256 150.442C252.539 150.442 249.118 151.19 245.973 152.637C242.828 154.083 240.033 156.192 237.78 158.82L98.0002 321.94C84.6602 337.51 95.7202 361.56 116.22 361.56H395.82C416.32 361.56 427.38 337.51 414 321.94Z" />
</symbol>

<symbol id="caret-down-outline" viewBox="0 0 512 512">
<path d="M98.0002 190.06L237.78 353.18C240.033 355.808 242.828 357.917 245.973 359.363C249.118 360.81 252.539 361.558 256 361.558C259.462 361.558 262.882 360.81 266.027 359.363C269.172 357.917 271.967 355.808 274.22 353.18L414 190.06C427.34 174.49 416.28 150.44 395.78 150.44H116.18C95.6802 150.44 84.6202 174.49 98.0002 190.06Z" />
</symbol>

<symbol id="happy-outline" viewBox="0 0 512 512" fill="none">
<path d="M184.006 256C197.261 256 208.006 245.255 208.006 232C208.006 218.745 197.261 208 184.006 208C170.751 208 160.006 218.745 160.006 232C160.006 245.255 170.751 256 184.006 256Z" fill="#9ABC5E"/>
<path d="M256.056 384C210.636 384 172.436 354.47 160.346 314.17C160.008 312.971 159.955 311.709 160.19 310.485C160.426 309.262 160.944 308.11 161.704 307.123C162.464 306.135 163.443 305.338 164.565 304.796C165.687 304.254 166.92 303.981 168.166 304H343.856C345.102 303.981 346.335 304.254 347.457 304.796C348.579 305.338 349.559 306.135 350.318 307.123C351.078 308.11 351.596 309.262 351.832 310.485C352.068 311.709 352.014 312.971 351.676 314.17C339.686 354.47 301.476 384 256.056 384Z" fill="#9ABC5E"/>
<path d="M328.006 256C341.261 256 352.006 245.255 352.006 232C352.006 218.745 341.261 208 328.006 208C314.751 208 304.006 218.745 304.006 232C304.006 245.255 314.751 256 328.006 256Z" fill="#9ABC5E"/>
<path d="M256.006 464C370.881 464 464.006 370.875 464.006 256C464.006 141.125 370.881 48 256.006 48C141.131 48 48.0059 141.125 48.0059 256C48.0059 370.875 141.131 464 256.006 464Z" stroke-width="32" stroke-miterlimit="10"/>
</symbol>

<symbol id="sad-outline" viewBox="0 0 512 512" fill="none">
<path d="M184.006 256C197.261 256 208.006 245.255 208.006 232C208.006 218.745 197.261 208 184.006 208C170.751 208 160.006 218.745 160.006 232C160.006 245.255 170.751 256 184.006 256Z" fill="#9ABC5E"/>
<path d="M256.006 288C301.426 288 339.626 317.53 351.716 357.83C352.055 359.033 352.108 360.3 351.87 361.527C351.631 362.755 351.108 363.909 350.343 364.898C349.578 365.887 348.592 366.682 347.463 367.221C346.335 367.76 345.096 368.027 343.846 368H168.156C166.91 368.019 165.677 367.746 164.555 367.204C163.433 366.662 162.453 365.865 161.694 364.877C160.934 363.89 160.416 362.738 160.18 361.514C159.944 360.291 159.998 359.029 160.336 357.83C172.326 317.53 210.536 288 256.006 288Z" fill="#9ABC5E"/>
<path d="M328.006 256C341.261 256 352.006 245.255 352.006 232C352.006 218.745 341.261 208 328.006 208C314.751 208 304.006 218.745 304.006 232C304.006 245.255 314.751 256 328.006 256Z" fill="#9ABC5E"/>
<path d="M256.006 464C370.881 464 464.006 370.875 464.006 256C464.006 141.125 370.881 48 256.006 48C141.131 48 48.0059 141.125 48.0059 256C48.0059 370.875 141.131 464 256.006 464Z" stroke-width="32" stroke-miterlimit="10"/>
</symbol>

<symbol id="warning-outline" viewBox="0 0 512 512" fill="none">
<path d="M85.5758 446.25H426.436C431.972 446.249 437.413 444.812 442.228 442.079C447.042 439.346 451.065 435.41 453.904 430.657C456.742 425.904 458.299 420.496 458.422 414.961C458.545 409.427 457.23 403.955 454.606 399.08L284.186 82.58C272.096 60.14 239.916 60.14 227.826 82.58L57.4058 399.08C54.7814 403.955 53.4664 409.427 53.5895 414.961C53.7125 420.496 55.2694 425.904 58.1079 430.657C60.9464 435.41 64.9695 439.346 69.784 442.079C74.5985 444.812 80.0397 446.249 85.5758 446.25Z" stroke-width="32" stroke-linecap="round" stroke-linejoin="round"/>
<path d="M250.266 195.39L256.006 317.39L261.736 195.44C261.771 194.66 261.647 193.882 261.371 193.152C261.096 192.422 260.674 191.755 260.132 191.194C259.59 190.632 258.939 190.187 258.219 189.886C257.5 189.584 256.726 189.432 255.946 189.44C255.179 189.447 254.421 189.609 253.718 189.914C253.014 190.219 252.379 190.662 251.85 191.216C251.32 191.771 250.907 192.426 250.635 193.143C250.363 193.86 250.237 194.624 250.266 195.39Z" stroke-width="32" stroke-linecap="round" stroke-linejoin="round"/>
<path d="M256.006 397.25C252.05 397.25 248.183 396.077 244.894 393.879C241.605 391.682 239.042 388.558 237.528 384.904C236.015 381.249 235.618 377.228 236.39 373.348C237.162 369.469 239.067 365.905 241.864 363.108C244.661 360.311 248.224 358.406 252.104 357.634C255.984 356.863 260.005 357.259 263.66 358.772C267.314 360.286 270.438 362.85 272.635 366.139C274.833 369.428 276.006 373.294 276.006 377.25C276.006 382.554 273.899 387.641 270.148 391.392C266.397 395.143 261.31 397.25 256.006 397.25Z" fill="#9ABC5E"/>
</symbol>

<symbol id="spinner-outline" viewBox="0 0 48 48" fill="none">
<g clip-path="url(#clip0_492_10028)">
<path d="M24 6.22069V12.2207" stroke-width="1.5" stroke-linecap="round" stroke-linejoin="round"/>
<path d="M36.7275 11.4932L32.4844 15.7363" stroke-width="1.5" stroke-linecap="round" stroke-linejoin="round"/>
<path d="M42 24.2207H36" stroke-width="1.5" stroke-linecap="round" stroke-linejoin="round"/>
<path d="M36.7275 36.9482L32.4844 32.7051" stroke-width="1.5" stroke-linecap="round" stroke-linejoin="round"/>
<path d="M24 42.2207V36.2207" stroke-width="1.5" stroke-linecap="round" stroke-linejoin="round"/>
<path d="M11.2725 36.9482L15.5156 32.7051" stroke-width="1.5" stroke-linecap="round" stroke-linejoin="round"/>
<path d="M6 24.2207H12" stroke-width="1.5" stroke-linecap="round" stroke-linejoin="round"/>
<path d="M11.2725 11.4932L15.5156 15.7363" stroke-width="1.5" stroke-linecap="round" stroke-linejoin="round"/>
</g>
<defs>
<clipPath id="clip0_492_10028">
<rect width="48" height="48" fill="none" transform="translate(0 0.220688)"/>
</clipPath>
</defs>
</symbol>

</defs>
</svg>